# xmcd CD database file
#
# Track frame offsets:
#	150
#	1595
#	12542
#	23036
#	34276
#	45714
#	56727
#	68982
#	79372
#	91230
#	101836
#	111625
#	123526
#	134304
#	146070
#	157432
#	168984
#	177617
#	189085
#	198748
#	211605
#	222552
#	233365
#	242456
#	252386
#	263033
#	275371
#	286512
#	298415
#	309483
#	321270
#	330794
#
# Disc length: 4560 seconds
#
# Revision: 1
# Processed by: cddbd v1.5.1PL0 Copyright (c) Steve Scherf et al.
# Submitted via: CDex 1.51
#
DISCID=de11ce20
DTITLE=Jim Reeves - Gentlemen Jim - 1955-1959-1
DYEAR=1900
DGENRE=Country
TTITLE0=Spoken Intro
TTITLE1=I'm Hurtin' Inside
TTITLE2=If You Were Mine
TTITLE3=That's A Sad Affair
TTITLE4=Younder Comes A Sucker
TTITLE5=Jimbo Jenkins
TTITLE6=I've Lived A Lot In My Life
TTITLE7=Ichabod Crane
TTITLE8=My Lips Are Sealed
TTITLE9=Your Old Love Letters
TTITLE10=Waltzing On Top Of The World
TTITLE11=Beyond A Shadow Of A Doubt
TTITLE12=Love Me A Little Bit More
TTITLE13=According To My Heart
TTITLE14=Each Time You Leave
TTITLE15=Highway To Nowhere
TTITLE16=Breeze (Bring My Baby Back To Me)
TTITLE17=Roly Poly
TTITLE18=Tweedle O'Twill
TTITLE19=Have I Told You Lately That I Love You
TTITLE20=Oklahoma Hills
TTITLE21=My Lips Are Sealed
TTITLE22=Pickin' A Chicken
TTITLE23=I've Got Just The Thing For You
TTITLE24=Mother Of A Honky Tonk Girl
TTITLE25=Am I Losing You
TTITLE26=According To My Heart
TTITLE27=Don't Tell Me
TTITLE28=I Can't Fly
TTITLE29=Don't Ask Me Why
TTITLE30=Waiting For A Train
TTITLE31=Look Behind You
EXTD=
EXTT0=
EXTT1=
EXTT2=
EXTT3=
EXTT4=
EXTT5=
EXTT6=
EXTT7=
EXTT8=
EXTT9=
EXTT10=
EXTT11=
EXTT12=
EXTT13=
EXTT14=
EXTT15=
EXTT16=
EXTT17=
EXTT18=
EXTT19=
EXTT20=
EXTT21=
EXTT22=
EXTT23=
EXTT24=
EXTT25=
EXTT26=
EXTT27=
EXTT28=
EXTT29=
EXTT30=
EXTT31=
PLAYORDER=
